logo<svg version="1.1" id="Layer_1" xmlns="http://www.w3.org/2000/svg" xmlns:xlink="http://www.w3.org/1999/xlink"
	x="0px" y="0px" width="100%" viewBox="0 0 500 500" enable-background="new 0 0 500 500" xml:space="preserve">

	<path fill="#2B2B2B" opacity="1.000000" stroke="none" d="
M277.051147,397.058167 
	C272.256805,397.680542 267.462433,398.302917 261.979431,398.670319 
	C255.561295,398.291016 249.830704,398.039795 244.102783,398.090607 
	C240.759201,398.120239 237.419876,398.632812 234.078644,398.928101 
	C211.104691,395.766449 188.894760,389.991272 169.533600,376.748505 
	C158.700333,369.338806 148.011047,361.318329 138.783539,352.052673 
	C124.007973,337.216064 112.843765,319.565063 105.749107,299.746399 
	C102.996307,292.056549 101.266602,283.868439 100.144577,275.758759 
	C98.584778,264.485046 97.561554,253.087158 97.187805,241.713531 
	C96.822243,230.589005 99.112999,219.689133 101.510574,208.788132 
	C105.735756,189.577621 114.348190,172.630890 125.590164,156.688110 
	C134.364883,144.244263 145.002411,133.874557 156.938004,124.522110 
	C170.582474,113.830627 185.681549,106.103859 202.076981,100.936913 
	C221.174591,94.918396 240.905396,92.580849 260.809296,94.206841 
	C270.902924,95.031410 280.793823,98.201141 290.810242,100.135391 
	C310.925140,104.019760 328.015137,114.408371 343.794037,126.523888 
	C353.496521,133.973755 362.101440,143.361008 369.504150,153.158966 
	C377.311096,163.491913 384.128815,174.874847 389.550690,186.641388 
	C399.464233,208.155807 403.082245,231.272949 401.717194,254.863754 
	C401.082214,265.837219 398.366272,276.690247 396.048157,287.764923 
	C393.219910,286.327148 390.717010,284.957611 388.698914,283.069794 
	C384.109711,278.776855 379.757202,274.230774 375.311127,269.784912 
	C361.836121,256.310516 348.303528,242.893066 334.907227,229.340836 
	C324.660492,218.974854 314.612579,208.412552 304.407501,198.004929 
	C302.925934,196.493958 301.060577,195.359344 299.141479,193.739929 
	C292.951843,193.293320 286.993500,193.157349 280.849304,193.387726 
	C280.449188,195.712067 280.058472,197.669281 280.049896,199.628189 
	C279.999695,211.061722 280.057251,222.495697 280.028625,233.929398 
	C280.024323,235.646912 279.758545,237.363770 279.505890,240.360260 
	C277.120667,238.262390 275.642853,237.072189 274.289642,235.754059 
	C267.197083,228.845322 260.136139,221.904160 252.912567,214.661102 
	C251.977325,213.224915 251.193710,212.101868 250.111115,210.896118 
	C240.471237,201.024277 229.429489,194.464676 215.808365,192.628754 
	C195.374847,189.874573 178.216614,196.417755 165.045700,211.913788 
	C151.238785,228.158157 148.473801,246.987671 155.311096,267.106903 
	C159.428223,279.221802 168.090286,287.860718 178.228485,295.676514 
	C179.056320,296.255432 179.651459,296.581665 180.152420,296.957367 
	C180.058228,297.006866 179.959412,296.818390 180.218506,296.994690 
	C181.052399,297.404358 181.627197,297.637726 182.182709,297.756897 
	C182.163422,297.642761 182.385635,297.577820 182.372528,297.937317 
	C183.681610,300.137512 184.779907,302.201355 186.359192,303.785858 
	C215.320145,332.842651 244.359253,361.821594 273.291656,390.906708 
	C274.940186,392.563904 275.815826,394.989929 277.051147,397.058167 
z" data-index="1" style="visibility: visible; opacity: 1;"></path>
	<path fill="#1A1A19" opacity="1.000000" stroke="none" d="
M277.430756,397.010681 
	C275.815826,394.989929 274.940186,392.563904 273.291656,390.906708 
	C244.359253,361.821594 215.320145,332.842651 186.359192,303.785858 
	C184.779907,302.201355 183.681610,300.137512 182.721161,298.039368 
	C220.447021,315.744781 262.548431,289.119232 262.818298,248.110382 
	C262.845520,243.978561 261.971008,242.270584 257.328949,242.333740 
	C237.845963,242.598770 218.357269,242.432373 198.870773,242.475418 
	C197.239136,242.479019 195.608368,242.865585 193.643585,243.250397 
	C192.884079,248.059418 192.304443,252.686844 192.140656,257.328918 
	C192.099854,258.485535 193.401505,259.689484 194.345123,260.936432 
	C194.750626,261.102203 194.897156,261.203217 195.190125,261.599365 
	C199.526566,264.687927 205.399460,265.672272 205.495529,273.251740 
	C210.004013,268.655426 212.929047,269.810455 215.098419,274.168884 
	C218.545654,267.958832 222.788513,266.609772 227.001526,269.998779 
	C227.000000,270.000000 226.996948,270.002441 226.708740,270.080444 
	C225.915298,271.028259 225.516113,271.985138 224.886139,272.752533 
	C222.381500,275.803619 220.336166,280.310669 217.124268,281.437073 
	C212.830566,282.942810 207.611343,281.809448 203.997849,281.809448 
	C201.214111,280.627960 199.362259,279.524292 197.362289,279.063629 
	C193.903931,278.267120 190.353668,277.869476 186.841965,277.304535 
	C187.256790,276.866638 187.671616,276.428711 188.086456,275.990814 
	C186.828171,272.601532 186.383423,268.461517 184.115524,266.003937 
	C180.939484,262.562256 177.669785,259.608337 176.743942,254.719849 
	C176.388290,252.841980 175.155197,251.074554 174.099380,249.396851 
	C172.040100,246.124725 173.529327,234.245560 176.465652,231.986069 
	C177.080276,231.513153 178.060684,231.534149 178.720413,231.097610 
	C180.345749,230.022186 182.711960,229.127197 183.291870,227.595963 
	C184.741287,223.768845 186.490204,221.163956 191.724304,222.677231 
	C189.340164,217.632950 191.964066,216.281815 195.603363,215.201416 
	C197.537247,214.627304 199.205948,213.159912 201.188187,212.009674 
	C201.382019,211.923615 201.806168,211.921494 202.278152,211.938721 
	C205.905365,211.942917 209.060577,211.929886 212.517944,211.896484 
	C213.215317,211.942322 213.610550,212.008530 214.265442,212.294189 
	C219.110199,216.582321 225.930725,218.043854 228.273407,223.908188 
	C230.441696,224.391586 232.224426,225.098404 234.017120,225.124634 
	C237.817856,225.180267 241.736008,225.361176 245.376694,224.509888 
	C247.013824,224.127106 248.100906,221.391785 249.772476,219.306015 
	C249.568787,218.326324 249.201477,216.559647 248.861572,214.838104 
	C248.888992,214.883255 248.795639,214.833801 249.220642,214.869873 
	C250.785141,214.928711 251.924667,214.951477 253.064178,214.974243 
	C260.136139,221.904160 267.197083,228.845322 274.289642,235.754059 
	C275.642853,237.072189 277.120667,238.262390 279.505890,240.360260 
	C279.758545,237.363770 280.024323,235.646912 280.028625,233.929398 
	C280.057251,222.495697 279.999695,211.061722 280.049896,199.628189 
	C280.058472,197.669281 280.449188,195.712067 280.787842,193.851013 
	C280.912323,230.181702 280.912323,266.415436 280.912323,302.875427 
	C282.649261,302.782837 283.792389,302.721893 285.338348,302.739105 
	C286.829498,302.766022 287.917816,302.714752 289.464966,302.762573 
	C307.466888,302.861694 325.009979,302.861694 342.476135,302.861694 
	C342.476135,296.233002 342.476135,290.349060 342.476135,283.866577 
	C327.883453,283.866577 313.698151,283.866577 299.372803,283.866577 
	C299.372803,253.519974 299.372803,223.785278 299.372803,194.050583 
	C301.060577,195.359344 302.925934,196.493958 304.407501,198.004929 
	C314.612579,208.412552 324.660492,218.974854 334.907227,229.340836 
	C348.303528,242.893066 361.836121,256.310516 375.311127,269.784912 
	C379.757202,274.230774 384.109711,278.776855 388.698914,283.069794 
	C390.717010,284.957611 393.219910,286.327148 395.836121,288.092163 
	C389.961517,308.912262 380.701660,328.180145 366.628723,344.486237 
	C355.441101,357.449158 342.790009,369.032745 327.726105,377.915527 
	C312.068085,387.148560 295.394073,393.093628 277.430756,397.010681 
M190.858551,275.004944 
	C198.397003,274.862213 199.983810,273.917328 199.833679,269.237793 
	C197.990860,270.094940 196.293961,270.884247 194.350952,271.787994 
	C193.754440,270.199402 193.253387,268.865051 192.752335,267.530701 
	C192.431870,267.534546 192.111389,267.538422 191.790924,267.542267 
	C191.190384,270.025818 190.589844,272.509369 189.911514,275.045105 
	C189.911514,275.045105 190.007324,275.010986 190.858551,275.004944 
M206.275497,217.089676 
	C205.583572,217.376495 204.891647,217.663315 204.199722,217.950134 
	C204.533920,218.345200 204.868134,218.740250 205.202347,219.135315 
	C205.743546,218.477188 206.284760,217.819061 206.275497,217.089676 
M210.835297,277.155121 
	C209.953598,277.357056 209.071899,277.559021 208.190186,277.760986 
	C208.398712,278.205780 208.607224,278.650543 208.815750,279.095337 
	C209.662857,278.511444 210.509979,277.927551 210.835297,277.155121 
M189.333725,261.915924 
	C189.082397,261.253662 188.831070,260.591370 188.579758,259.929138 
	C188.199554,260.135742 187.819351,260.342346 187.439133,260.548950 
	C187.939529,261.123413 188.439926,261.697876 189.333725,261.915924 
M200.921295,276.161072 
	C201.290909,276.184204 201.660507,276.207336 202.030121,276.230499 
	C202.035965,276.086914 202.041809,275.943298 202.047653,275.799713 
	C201.676849,275.803314 201.306046,275.806915 200.921295,276.161072 
z" data-index="2" style="opacity: 1;"></path>
	<path fill="#565558" opacity="1.000000" stroke="none" d="
M234.535797,399.010986 
	C237.419876,398.632812 240.759201,398.120239 244.102783,398.090607 
	C249.830704,398.039795 255.561295,398.291016 261.606323,398.677338 
	C252.945587,398.990814 243.969269,399.042358 234.535797,399.010986 
z" data-index="3"></path>
	<path fill="#F3BC2F" opacity="1.000000" stroke="none" d="
M195.043701,261.304260 
	C194.897156,261.203217 194.750626,261.102203 194.342224,260.480896 
	C194.045944,254.331818 194.011566,248.703033 193.977188,243.074249 
	C195.608368,242.865585 197.239136,242.479019 198.870773,242.475418 
	C218.357269,242.432373 237.845963,242.598770 257.328949,242.333740 
	C261.971008,242.270584 262.845520,243.978561 262.818298,248.110382 
	C262.548431,289.119232 220.447021,315.744781 182.734268,297.679871 
	C182.385635,297.577820 182.163422,297.642761 182.038879,297.443726 
	C181.262711,297.102570 180.611053,296.960480 179.959412,296.818390 
	C179.959412,296.818390 180.058228,297.006866 179.989899,296.633423 
	C179.279648,295.981262 178.637711,295.702545 177.995789,295.423798 
	C168.090286,287.860718 159.428223,279.221802 155.311096,267.106903 
	C148.473801,246.987671 151.238785,228.158157 165.045700,211.913788 
	C178.216614,196.417755 195.374847,189.874573 215.808365,192.628754 
	C229.429489,194.464676 240.471237,201.024277 250.168564,211.220551 
	C249.948532,212.696411 249.372086,213.765106 248.795639,214.833801 
	C248.795639,214.833801 248.888992,214.883255 248.541870,214.953796 
	C246.175552,216.708298 244.160309,218.397003 242.136368,220.075226 
	C236.258286,224.949326 236.482376,224.703171 230.879028,219.537842 
	C226.212677,215.236267 220.796280,211.916168 214.005798,212.074738 
	C213.610550,212.008530 213.215317,211.942322 212.271805,211.539520 
	C208.417755,211.442459 205.111954,211.681976 201.806168,211.921494 
	C201.806168,211.921494 201.382019,211.923615 200.777313,211.946808 
	C198.071396,212.306183 195.854614,212.321533 193.887604,213.030151 
	C180.323303,217.916885 170.250290,232.174667 169.973099,246.635376 
	C169.614014,265.368469 183.264755,281.695404 201.883194,284.801361 
	C218.650162,287.598450 236.955627,276.775970 241.337906,261.304260 
	C225.869141,261.304260 210.456421,261.304260 195.043701,261.304260 
z" data-index="4" style="opacity: 1;"></path>
	<path fill="#DFB247" opacity="1.000000" stroke="none" d="
M284.935486,302.660950 
	C283.792389,302.721893 282.649261,302.782837 280.912323,302.875427 
	C280.912323,266.415436 280.912323,230.181702 280.973755,193.484680 
	C286.993500,193.157349 292.951843,193.293320 299.141479,193.739929 
	C299.372803,223.785278 299.372803,253.519974 299.372803,283.866577 
	C313.698151,283.866577 327.883453,283.866577 342.476135,283.866577 
	C342.476135,290.349060 342.476135,296.233002 342.476135,302.861694 
	C325.009979,302.861694 307.466888,302.861694 289.683563,302.466736 
	C291.029114,301.735107 292.613190,301.115936 294.200989,301.106415 
	C307.032318,301.029449 319.865021,300.988617 332.695923,301.097504 
	C341.091095,301.168762 341.089996,301.288605 341.045471,292.863647 
	C341.043701,292.530365 341.009033,292.192383 341.050995,291.864471 
	C341.651093,287.175995 339.407379,285.787445 334.956299,285.889557 
	C325.129333,286.114929 315.293549,285.967773 305.461395,285.948486 
	C298.361755,285.934540 298.020660,285.619873 298.015717,278.709503 
	C297.998047,253.879089 298.018433,229.048676 297.999298,204.218277 
	C297.990753,193.108292 299.060028,194.228195 287.752808,193.945129 
	C283.424042,193.836761 281.904358,195.333206 281.922211,199.697983 
	C282.053192,231.693680 281.937683,263.690521 282.128967,295.685608 
	C282.142914,298.016235 283.957886,300.336060 284.935486,302.660950 
z" data-index="5"></path>
	<path fill="#1B1913" opacity="1.000000" stroke="none" d="
M249.220642,214.869873 
	C249.372086,213.765106 249.948532,212.696411 250.467529,211.303268 
	C251.193710,212.101868 251.977325,213.224915 252.912567,214.661102 
	C251.924667,214.951477 250.785141,214.928711 249.220642,214.869873 
z" data-index="6"></path>
	<path fill="#1A1A19" opacity="1.000000" stroke="none" d="
M178.228485,295.676514 
	C178.637711,295.702545 179.279648,295.981262 180.084106,296.583923 
	C179.651459,296.581665 179.056320,296.255432 178.228485,295.676514 
z" data-index="7"></path>
	<path fill="#1A1A19" opacity="1.000000" stroke="none" d="
M180.218506,296.994690 
	C180.611053,296.960480 181.262711,297.102570 182.058182,297.557861 
	C181.627197,297.637726 181.052399,297.404358 180.218506,296.994690 
z" data-index="8"></path>
	<path fill="#F8BE2B" opacity="1.000000" stroke="none" d="
M285.338348,302.739075 
	C283.957886,300.336060 282.142914,298.016235 282.128967,295.685608 
	C281.937683,263.690521 282.053192,231.693680 281.922211,199.697983 
	C281.904358,195.333206 283.424042,193.836761 287.752808,193.945129 
	C299.060028,194.228195 297.990753,193.108292 297.999298,204.218277 
	C298.018433,229.048676 297.998047,253.879089 298.015717,278.709503 
	C298.020660,285.619873 298.361755,285.934540 305.461395,285.948486 
	C315.293549,285.967773 325.129333,286.114929 334.956299,285.889557 
	C339.407379,285.787445 341.651093,287.175995 341.050995,291.864471 
	C341.009033,292.192383 341.043701,292.530365 341.045471,292.863647 
	C341.089996,301.288605 341.091095,301.168762 332.695923,301.097504 
	C319.865021,300.988617 307.032318,301.029449 294.200989,301.106415 
	C292.613190,301.115936 291.029114,301.735107 289.224701,302.367615 
	C287.917816,302.714752 286.829498,302.766022 285.338348,302.739075 
z" data-index="9" style="opacity: 1;"></path>
	<path fill="#1B1913" opacity="1.000000" stroke="none" d="
M195.190125,261.599365 
	C210.456421,261.304260 225.869141,261.304260 241.337906,261.304260 
	C236.955627,276.775970 218.650162,287.598450 201.883194,284.801361 
	C183.264755,281.695404 169.614014,265.368469 169.973099,246.635376 
	C170.250290,232.174667 180.323303,217.916885 193.887604,213.030151 
	C195.854614,212.321533 198.071396,212.306183 200.583466,212.032867 
	C199.205948,213.159912 197.537247,214.627304 195.603363,215.201416 
	C191.964066,216.281815 189.340164,217.632950 191.724304,222.677231 
	C186.490204,221.163956 184.741287,223.768845 183.291870,227.595963 
	C182.711960,229.127197 180.345749,230.022186 178.720413,231.097610 
	C178.060684,231.534149 177.080276,231.513153 176.465652,231.986069 
	C173.529327,234.245560 172.040100,246.124725 174.099380,249.396851 
	C175.155197,251.074554 176.388290,252.841980 176.743942,254.719849 
	C177.669785,259.608337 180.939484,262.562256 184.115524,266.003937 
	C186.383423,268.461517 186.828171,272.601532 188.086456,275.990814 
	C187.671616,276.428711 187.256790,276.866638 186.841965,277.304535 
	C190.353668,277.869476 193.903931,278.267120 197.362289,279.063629 
	C199.362259,279.524292 201.214111,280.627960 203.997849,281.809448 
	C207.611343,281.809448 212.830566,282.942810 217.124268,281.437073 
	C220.336166,280.310669 222.381500,275.803619 224.886139,272.752533 
	C225.516113,271.985138 225.915298,271.028259 226.715576,270.381714 
	C227.405899,271.368988 227.801147,272.132996 228.196396,272.897003 
	C228.543304,272.613312 228.890198,272.329620 229.237091,272.045929 
	C228.492416,271.363129 227.747742,270.680359 227.003052,269.997559 
	C222.788513,266.609772 218.545654,267.958832 215.098419,274.168884 
	C212.929047,269.810455 210.004013,268.655426 205.495529,273.251740 
	C205.399460,265.672272 199.526566,264.687927 195.190125,261.599365 
M228.524384,275.497559 
	C228.524384,275.497559 228.486008,275.510590 228.524384,275.497559 
z" data-index="10"></path>
	<path fill="#1B1913" opacity="1.000000" stroke="none" d="
M214.265442,212.294189 
	C220.796280,211.916168 226.212677,215.236267 230.879028,219.537842 
	C236.482376,224.703171 236.258286,224.949326 242.136368,220.075226 
	C244.160309,218.397003 246.175552,216.708298 248.514450,214.908661 
	C249.201477,216.559647 249.568787,218.326324 249.772476,219.306015 
	C248.100906,221.391785 247.013824,224.127106 245.376694,224.509888 
	C241.736008,225.361176 237.817856,225.180267 234.017120,225.124634 
	C232.224426,225.098404 230.441696,224.391586 228.273407,223.908188 
	C225.930725,218.043854 219.110199,216.582321 214.265442,212.294189 
z" data-index="11"></path>
	<path fill="#1B1913" opacity="1.000000" stroke="none" d="
M189.989304,274.992920 
	C190.589844,272.509369 191.190384,270.025818 191.790924,267.542267 
	C192.111389,267.538422 192.431870,267.534546 192.752335,267.530701 
	C193.253387,268.865051 193.754440,270.199402 194.350952,271.787994 
	C196.293961,270.884247 197.990860,270.094940 199.833679,269.237793 
	C199.983810,273.917328 198.397003,274.862213 190.429276,275.002563 
	C190.000000,275.000153 189.989304,274.992920 189.989304,274.992920 
z" data-index="12"></path>
	<path fill="#201B10" opacity="1.000000" stroke="none" d="
M193.643585,243.250412 
	C194.011566,248.703033 194.045944,254.331818 194.083221,260.416138 
	C193.401505,259.689484 192.099854,258.485535 192.140656,257.328918 
	C192.304443,252.686844 192.884079,248.059418 193.643585,243.250412 
z" data-index="13"></path>
	<path fill="#1B1913" opacity="1.000000" stroke="none" d="
M206.550720,217.125305 
	C206.284760,217.819061 205.743546,218.477188 205.202347,219.135315 
	C204.868134,218.740250 204.533920,218.345200 204.199722,217.950134 
	C204.891647,217.663315 205.583572,217.376495 206.550720,217.125305 
z" data-index="14"></path>
	<path fill="#1B1913" opacity="1.000000" stroke="none" d="
M211.096191,277.249390 
	C210.509979,277.927551 209.662857,278.511444 208.815750,279.095337 
	C208.607224,278.650543 208.398712,278.205780 208.190186,277.760986 
	C209.071899,277.559021 209.953598,277.357056 211.096191,277.249390 
z" data-index="15"></path>
	<path fill="#201B10" opacity="1.000000" stroke="none" d="
M189.137024,262.094116 
	C188.439926,261.697876 187.939529,261.123413 187.439148,260.548950 
	C187.819351,260.342346 188.199554,260.135742 188.579742,259.929138 
	C188.831070,260.591370 189.082397,261.253662 189.137024,262.094116 
z" data-index="16"></path>
	<path fill="#1B1913" opacity="1.000000" stroke="none" d="
M202.278152,211.938721 
	C205.111954,211.681976 208.417755,211.442459 211.969666,211.559891 
	C209.060577,211.929886 205.905365,211.942917 202.278152,211.938721 
z" data-index="17"></path>
	<path fill="#1B1913" opacity="1.000000" stroke="none" d="
M200.928268,275.985779 
	C201.306046,275.806915 201.676849,275.803314 202.047653,275.799713 
	C202.041809,275.943298 202.035965,276.086914 202.030121,276.230499 
	C201.660507,276.207336 201.290909,276.184204 200.928268,275.985779 
z" data-index="18"></path>
	<path fill="#1B1913" opacity="1.000000" stroke="none" d="
M190.003662,275.005554 
	C190.007324,275.010986 189.911514,275.045105 189.950409,275.019012 
	C189.989304,274.992920 190.000000,275.000153 190.003662,275.005554 
z" data-index="19"></path>
	<path fill="#1A1A19" opacity="1.000000" stroke="none" d="
M227.001526,269.998779 
	C227.747742,270.680359 228.492416,271.363129 229.237091,272.045929 
	C228.890198,272.329620 228.543304,272.613312 228.196396,272.897003 
	C227.801147,272.132996 227.405899,271.368988 227.003799,270.303711 
	C226.996948,270.002441 227.000000,270.000000 227.001526,269.998779 
z" data-index="20"></path>
	<path fill="#1A1A19" opacity="1.000000" stroke="none" d="
M228.505188,275.504089 
	C228.486008,275.510590 228.524384,275.497559 228.505188,275.504089 
z" data-index="21"></path>
</svg>